<svg xmlns="http://www.w3.org/2000/svg" viewBox="0 0 390 844" width="390" height="844">
  <defs>
    <linearGradient id="heroBg" x1="0%" y1="0%" x2="100%" y2="100%">
      <stop offset="0%" style="stop-color:#1a1508"/>
      <stop offset="50%" style="stop-color:#3d2e0a"/>
      <stop offset="100%" style="stop-color:#1a1508"/>
    </linearGradient>
    <radialGradient id="heroGlow" cx="60%" cy="40%">
      <stop offset="0%" style="stop-color:#c8961e;stop-opacity:0.35"/>
      <stop offset="100%" style="stop-color:#1a1508;stop-opacity:0"/>
    </radialGradient>
    <style>
      text { font-family: -apple-system, 'Inter', sans-serif; }
    </style>
  </defs>

  <!-- Background -->
  <rect width="390" height="844" fill="#0f0e0a"/>

  <!-- Status bar -->
  <text x="24" y="32" fill="#fff" font-size="15" font-weight="600">9:41</text>
  <text x="320" y="32" fill="#fff" font-size="11">●●● WiFi 🔋</text>

  <!-- Hero section -->
  <rect y="44" width="390" height="220" fill="url(#heroBg)"/>
  <rect y="44" width="390" height="220" fill="url(#heroGlow)"/>
  <!-- Mountain silhouette suggestion -->
  <path d="M0 220 L60 160 L120 190 L180 120 L240 155 L300 100 L360 140 L390 120 L390 264 L0 264Z" fill="rgba(0,0,0,0.3)" transform="translate(0,44)"/>
  <!-- Hero text -->
  <text x="24" y="218" fill="rgba(255,255,255,0.55)" font-size="10" font-weight="700" letter-spacing="2">FLATIRONS CREATIVE STUDIO</text>
  <text x="24" y="238" fill="#fff" font-size="20" font-weight="700">Digital work that</text>
  <text x="24" y="260" fill="#c8961e" font-size="20" font-weight="700">pays for itself.</text>

  <!-- Content area -->
  <!-- Section label -->
  <text x="20" y="300" fill="#c8961e" font-size="10" font-weight="700" letter-spacing="2">OUR SERVICES</text>

  <!-- Three service cards -->
  <!-- Card 1 -->
  <rect x="20" y="312" width="108" height="90" rx="12" fill="#1c1a12"/>
  <rect x="34" y="324" width="28" height="28" rx="7" fill="rgba(200,150,30,0.15)"/>
  <rect x="41" y="331" width="14" height="10" rx="2" fill="none" stroke="#c8961e" stroke-width="1.5"/>
  <path d="M41 344 L55 344" stroke="#c8961e" stroke-width="1.5"/>
  <text x="34" y="368" fill="#fff" font-size="11" font-weight="600">Web Design</text>
  <text x="34" y="382" fill="rgba(255,255,255,0.4)" font-size="10">Sites that convert</text>

  <!-- Card 2 -->
  <rect x="141" y="312" width="108" height="90" rx="12" fill="#1c1a12"/>
  <rect x="155" y="324" width="28" height="28" rx="7" fill="rgba(200,150,30,0.15)"/>
  <circle cx="169" cy="338" r="8" fill="none" stroke="#c8961e" stroke-width="1.5"/>
  <path d="M165 338 L168 341 L173 335" stroke="#c8961e" stroke-width="1.5" fill="none"/>
  <text x="155" y="368" fill="#fff" font-size="11" font-weight="600">AI Clarity</text>
  <text x="155" y="382" fill="rgba(255,255,255,0.4)" font-size="10">Own AI answers</text>

  <!-- Card 3 -->
  <rect x="262" y="312" width="108" height="90" rx="12" fill="#1c1a12"/>
  <rect x="276" y="324" width="28" height="28" rx="7" fill="rgba(200,150,30,0.15)"/>
  <path d="M280 348 L280 340 M284 348 L284 336 M288 348 L288 342 M292 348 L292 338" stroke="#c8961e" stroke-width="1.5"/>
  <text x="276" y="368" fill="#fff" font-size="11" font-weight="600">SEO Growth</text>
  <text x="276" y="382" fill="rgba(255,255,255,0.4)" font-size="10">Rankings that stick</text>

  <!-- List items -->
  <line x1="20" y1="416" x2="370" y2="416" stroke="rgba(255,255,255,0.06)" stroke-width="1"/>
  <circle cx="30" cy="432" r="4" fill="#c8961e"/>
  <text x="46" y="428" fill="#fff" font-size="13" font-weight="500">AI Productivity</text>
  <text x="46" y="442" fill="rgba(255,255,255,0.4)" font-size="11">Tools that earn their keep</text>
  <text x="355" y="436" fill="rgba(255,255,255,0.3)" font-size="18">›</text>

  <line x1="20" y1="456" x2="370" y2="456" stroke="rgba(255,255,255,0.06)" stroke-width="1"/>
  <circle cx="30" cy="472" r="4" fill="#c8961e"/>
  <text x="46" y="468" fill="#fff" font-size="13" font-weight="500">Custom SaaS</text>
  <text x="46" y="482" fill="rgba(255,255,255,0.4)" font-size="11">Software built to your shape</text>
  <text x="355" y="476" fill="rgba(255,255,255,0.3)" font-size="18">›</text>

  <line x1="20" y1="496" x2="370" y2="496" stroke="rgba(255,255,255,0.06)" stroke-width="1"/>

  <!-- CTA Button -->
  <rect x="20" y="510" width="350" height="48" rx="24" fill="#c8961e"/>
  <text x="195" y="539" fill="#1a1a12" font-size="13" font-weight="700" text-anchor="middle" letter-spacing="1">START A PROJECT ↗</text>

  <!-- Bottom nav bar -->
  <rect y="764" width="390" height="80" fill="#1c1a12"/>
  <line x1="0" y1="764" x2="390" y2="764" stroke="rgba(255,255,255,0.06)" stroke-width="1"/>

  <!-- Home icon (active) -->
  <path d="M50 790 L58 783 L66 790 L66 800 L54 800 L54 794 L62 794 L62 800" fill="none" stroke="#c8961e" stroke-width="1.8" stroke-linejoin="round"/>
  <text x="58" y="816" fill="#c8961e" font-size="10" text-anchor="middle">Home</text>

  <!-- Work icon -->
  <rect x="144" y="783" width="14" height="10" rx="2" fill="none" stroke="rgba(255,255,255,0.35)" stroke-width="1.8"/>
  <path d="M141 793 L161 793" stroke="rgba(255,255,255,0.35)" stroke-width="1.8"/>
  <text x="152" y="816" fill="rgba(255,255,255,0.35)" font-size="10" text-anchor="middle">Work</text>

  <!-- About icon -->
  <circle cx="246" cy="787" r="5" fill="none" stroke="rgba(255,255,255,0.35)" stroke-width="1.8"/>
  <path d="M236 800 Q246 795 256 800" fill="none" stroke="rgba(255,255,255,0.35)" stroke-width="1.8"/>
  <text x="246" y="816" fill="rgba(255,255,255,0.35)" font-size="10" text-anchor="middle">About</text>

  <!-- Contact icon -->
  <rect x="326" y="783" width="18" height="14" rx="2" fill="none" stroke="rgba(255,255,255,0.35)" stroke-width="1.8"/>
  <path d="M326 786 L335 792 L344 786" fill="none" stroke="rgba(255,255,255,0.35)" stroke-width="1.8"/>
  <text x="335" y="816" fill="rgba(255,255,255,0.35)" font-size="10" text-anchor="middle">Contact</text>

  <!-- Home indicator -->
  <rect x="155" y="836" width="80" height="4" rx="2" fill="rgba(255,255,255,0.3)"/>
</svg>
